<svg width="392" height="392" viewBox="0 0 392 392" fill="none" xmlns="http://www.w3.org/2000/svg">
<path fill-rule="evenodd" clip-rule="evenodd" d="M196 382C298.725 382 382 298.725 382 196C382 93.275 298.725 10 196 10C93.275 10 10 93.275 10 196C10 298.725 93.275 382 196 382ZM196 392C304.248 392 392 304.248 392 196C392 87.7522 304.248 0 196 0C87.7522 0 0 87.7522 0 196C0 304.248 87.7522 392 196 392ZM120.882 207L152.882 117.4H134.706L111.282 185.112H111.026L87.346 117.4H69.17L101.17 207H120.882ZM213.886 207H233.598L214.142 173.208L228.99 164.632V125.976L214.142 117.4H165.63V207H183.55V173.208H194.686L213.886 207ZM183.55 157.848V132.76H211.07V157.848H183.55ZM250.755 125.336V161.56L265.603 170.136H294.915V192.28H267.395V182.04H249.475V199.064L264.323 207.64H297.987L312.835 199.064V162.072L297.987 153.496H268.675V132.12H294.915V142.36H312.835V125.336L297.987 116.76H265.603L250.755 125.336ZM72.912 273L84.912 239.4H80.064L69.984 268.056H69.888L59.808 239.4H54.96L66.96 273H72.912ZM90.195 239.4V273H94.995V239.4H90.195ZM102.688 239.4V243.72H118.288V243.816L101.728 270.12V273H124.528V268.68H107.968V268.584L124.528 242.28V239.4H102.688ZM158.318 273L146.318 239.4H140.366L128.366 273H133.07L135.902 265.032H150.782L153.614 273H158.318ZM137.438 260.712L143.294 244.152H143.39L149.246 260.712H137.438ZM177.041 256.2V260.52H182.561V268.92H168.401V243.48H182.561V247.8H187.361V242.376L181.793 239.16H169.169L163.601 242.376V270.024L169.169 273.24H181.793L187.361 270.024V256.2H177.041ZM208.461 242.376V255.24L214.029 258.456H225.981V268.92H212.781V265.08H207.981V270.024L213.549 273.24H225.213L230.781 270.024V256.872L225.213 253.656H213.261V243.48H225.981V247.32H230.781V242.376L225.213 239.16H214.029L208.461 242.376ZM250.87 273V243.72H260.422V239.4H236.518V243.72H246.07V273H250.87ZM270.964 268.68V257.88H282.436V253.56H270.964V243.72H285.316V239.4H266.164V273H285.316V268.68H270.964ZM296.839 268.68V257.88H308.311V253.56H296.839V243.72H311.191V239.4H292.039V273H311.191V268.68H296.839ZM322.714 239.4H317.914V273H335.146V268.68H322.714V239.4ZM372 196.5C372 293.978 292.978 373 195.5 373C98.0217 373 19 293.978 19 196.5C19 99.0217 98.0217 20 195.5 20C292.978 20 372 99.0217 372 196.5ZM376 196.5C376 296.187 295.187 377 195.5 377C95.8126 377 15 296.187 15 196.5C15 96.8126 95.8126 16 195.5 16C295.187 16 376 96.8126 376 196.5Z" fill="#008A3D"/>
</svg>
